<svg width="28" height="18" viewBox="0 0 28 18" fill="none" xmlns="http://www.w3.org/2000/svg">
<path fill-rule="evenodd" clip-rule="evenodd" d="M-3.93402e-07 9C-4.04994e-07 8.73482 0.10535 8.4805 0.292874 8.29299C0.480398 8.10548 0.734736 8.00014 0.999936 8.00014L24.5844 8.00014L18.2908 1.70902C18.1031 1.52128 17.9976 1.26664 17.9976 1.00112C17.9976 0.735608 18.1031 0.48097 18.2908 0.293222C18.4786 0.105476 18.7333 1.08849e-06 18.9988 1.07689e-06C19.2643 1.06528e-06 19.519 0.105476 19.7067 0.293222L27.7062 8.2921C27.7994 8.38498 27.8732 8.49531 27.9236 8.61679C27.9741 8.73826 28 8.86848 28 9C28 9.13152 27.9741 9.26174 27.9236 9.38321C27.8732 9.50469 27.7994 9.61502 27.7062 9.7079L19.7067 17.7068C19.519 17.8945 19.2643 18 18.9988 18C18.7333 18 18.4786 17.8945 18.2908 17.7068C18.1031 17.519 17.9976 17.2644 17.9976 16.9989C17.9976 16.7334 18.1031 16.4787 18.2908 16.291L24.5844 9.99986L0.999936 9.99986C0.734736 9.99986 0.480399 9.89452 0.292874 9.70701C0.10535 9.5195 -3.81811e-07 9.26518 -3.93402e-07 9Z" fill="#374219"/>
</svg>
